<svg width="218" height="41" viewBox="0 0 218 41" fill="none" xmlns="http://www.w3.org/2000/svg">
<g clip-path="url(#clip0_1_534)">
<mask id="mask0_1_534" style="mask-type:luminance" maskUnits="userSpaceOnUse" x="0" y="0" width="218" height="41">
<path d="M218 0H0V41H218V0Z" fill="white"/>
</mask>
<g mask="url(#mask0_1_534)">
<path d="M131.094 22.1612C131.104 20.403 130.664 18.6857 129.824 17.1627C129.353 16.304 128.753 15.5272 128.063 14.8423L124.741 18.3177C124.821 18.3893 124.901 18.4711 124.972 18.5528C125.822 19.5444 126.292 20.8323 126.292 22.1612C126.292 23.49 125.822 24.778 124.972 25.7695C124.541 26.2397 124.021 26.6179 123.441 26.8632C122.861 27.1086 122.24 27.2312 121.62 27.2108C120.99 27.2312 120.36 27.1086 119.779 26.853C119.199 26.5975 118.669 26.2295 118.229 25.7593C117.348 24.778 116.868 23.49 116.868 22.1509C116.868 20.8119 117.358 19.5239 118.229 18.5426C118.659 18.0724 119.189 17.7044 119.759 17.4591C120.34 17.2138 120.96 17.0911 121.58 17.1013H121.62C122.14 17.1013 122.661 17.1831 123.161 17.3467L125.642 14.7503L123.381 12.3686C122.791 12.2562 122.19 12.1948 121.59 12.1948C119.709 12.1948 117.869 12.7673 116.298 13.861C114.727 14.9547 113.507 16.5085 112.776 18.328C112.056 20.1475 111.856 22.1509 112.216 24.0931C112.576 26.025 113.487 27.8036 114.807 29.204C116.138 30.6044 117.829 31.5551 119.679 31.9435C121.53 32.3319 123.441 32.1377 125.182 31.3915C126.922 30.6453 128.413 29.3676 129.463 27.7321C130.514 26.0966 131.084 24.1647 131.084 22.1918V22.1509L131.094 22.1612Z" fill="url(#paint0_linear_1_534)"/>
<path d="M126.732 14.5354L123.861 17.5406L121.59 19.9121V9.15869L126.732 14.5354Z" fill="url(#paint1_linear_1_534)"/>
<path d="M68.7385 25.3812C68.1682 24.635 67.8781 23.4083 67.8781 21.691V16.7437L62.5659 17.6432V21.691C62.5659 25.146 63.3763 27.722 65.0069 29.4086C66.6276 31.0952 68.8185 31.9334 71.5796 31.9436V26.5056C70.2591 26.5056 69.3187 26.1273 68.7385 25.3812Z" fill="url(#paint2_linear_1_534)"/>
<path d="M62.5557 8.28983V1.67627H67.8779V7.36986L62.5557 8.30005V8.28983Z" fill="url(#paint3_linear_1_534)"/>
<path d="M71.4895 13.6872L70.6291 8.30029L64.7767 9.27137L62.5558 9.74158V10.6922C62.4858 10.8149 62.3857 10.8762 62.1056 10.7944L60.3649 10.3038C60.2048 10.2629 60.0448 10.2629 59.8847 10.3038C59.7246 10.3447 59.5846 10.4264 59.4645 10.5491L58.0539 11.9188C58.0539 11.9188 58.0339 11.9495 58.0239 11.9597C58.0239 11.9802 58.0239 11.9904 58.0239 12.0108C58.0239 12.0313 58.0239 12.0415 58.0439 12.0619C58.0639 12.0824 58.0639 12.0926 58.084 12.1028C58.234 12.1948 58.4141 12.2357 58.5842 12.2153C58.7542 12.1948 58.9243 12.1233 59.0543 11.9904L59.6346 11.4282C59.7746 11.2953 59.9547 11.2135 60.1448 11.1931C60.3349 11.1726 60.525 11.2135 60.685 11.3158L63.086 12.8286C63.2361 12.9206 63.3461 13.0739 63.3961 13.2477C63.4762 14.3517 62.4357 15.1285 62.4958 15.1183L65.3469 14.6276L71.5195 13.6975L71.4895 13.6872Z" fill="url(#paint4_linear_1_534)"/>
<path d="M55.4731 8.01384C56.2134 7.42097 57.1238 7.10409 58.0542 7.11432V1.67627C55.3431 1.67627 53.2322 2.44291 51.7316 3.98642C50.2209 5.52992 49.3606 7.65607 49.1305 10.3751H45.9692V15.8131H49.0405V31.8104H54.3627V15.8234H55.5832V10.3853H54.4527C54.4327 9.93556 54.5127 9.48579 54.6928 9.07692C54.8729 8.66804 55.133 8.30005 55.4731 8.02406V8.01384Z" fill="url(#paint5_linear_1_534)"/>
<path d="M63.0562 13.3496C63.0562 13.3496 63.0262 13.2576 62.9962 13.2167C62.9662 13.1758 62.9262 13.1451 62.8862 13.1145L60.4752 11.6118C60.3751 11.5505 60.2551 11.5199 60.135 11.5301C60.015 11.5403 59.9049 11.5914 59.8149 11.6834L59.2347 12.2456C59.0546 12.4194 58.8245 12.5318 58.5844 12.5523C58.3443 12.5829 58.0942 12.5216 57.8841 12.3887C57.8241 12.3478 57.7741 12.2967 57.734 12.2354C57.694 12.1741 57.674 12.1025 57.674 12.0309C57.674 11.9594 57.674 11.8878 57.704 11.8265C57.734 11.7652 57.7741 11.7038 57.8241 11.6527L58.8245 10.6612C58.8245 10.6612 58.8445 10.6203 58.8545 10.5999C58.8545 10.5794 58.8545 10.559 58.8345 10.5386C58.8245 10.5181 58.8045 10.5079 58.7845 10.4977C58.7645 10.4874 58.7445 10.4977 58.7245 10.4977L57.0138 11.3461C56.7536 11.479 56.4635 11.5301 56.1734 11.4994V10.375H45.9692V15.813H56.1634V14.0651C56.3735 14.0651 56.5736 14.0855 56.7737 14.1367C57.1838 14.6273 57.704 15.0055 58.2943 15.2406C58.8745 15.4757 59.5048 15.5677 60.125 15.4962C60.1751 15.4962 60.2251 15.4757 60.2651 15.4451C60.3051 15.4144 60.3351 15.3633 60.3451 15.3122C60.3551 15.2611 60.3451 15.1997 60.3251 15.1588C60.3051 15.1077 60.2651 15.0668 60.2151 15.0464L59.8649 14.8317C59.8649 14.8317 59.7949 14.7704 59.7849 14.7295C59.7749 14.6886 59.7849 14.6375 59.7949 14.5966C59.7949 14.5762 59.8149 14.5558 59.8349 14.5455C59.8549 14.5353 59.8749 14.5149 59.8949 14.5149C59.9149 14.5149 59.935 14.5149 59.965 14.5149C59.995 14.5149 60.005 14.5251 60.025 14.5353L60.3751 14.75H60.3951L60.9854 15.1282C61.0454 15.1691 61.1154 15.1895 61.1855 15.1793C61.2555 15.1691 61.3255 15.1384 61.3756 15.0873C61.4356 15.0362 61.4656 14.9646 61.4756 14.8829C61.4756 14.8113 61.4756 14.75 61.4456 14.6886C61.4156 14.6273 61.3756 14.5762 61.3155 14.5353L60.6052 14.0958C60.6052 14.0958 60.5452 14.0447 60.5352 14.0038C60.5252 13.9629 60.5252 13.922 60.5352 13.8913C60.5552 13.8504 60.5852 13.8198 60.6252 13.7993C60.6653 13.7789 60.7053 13.7789 60.7453 13.7993H60.7653L61.4756 14.2491L61.8758 14.4842C61.9358 14.5251 62.0058 14.5455 62.0758 14.5353C62.1459 14.5353 62.2159 14.5046 62.2659 14.4535C62.3059 14.4126 62.346 14.3718 62.366 14.3207C62.386 14.2695 62.396 14.2082 62.386 14.1571C62.386 14.106 62.366 14.0549 62.336 14.014C62.3059 13.9731 62.2759 13.9322 62.2259 13.9016L61.3355 13.3393C61.3355 13.3393 61.2755 13.2882 61.2655 13.2474C61.2555 13.2065 61.2555 13.1656 61.2655 13.1349C61.2855 13.094 61.3155 13.0634 61.3455 13.0429C61.3856 13.0225 61.4256 13.0225 61.4656 13.0429H61.4856L62.386 13.6051L62.516 13.6869C62.5861 13.7278 62.6761 13.7482 62.7561 13.7278C62.8362 13.7073 62.9162 13.6562 62.9662 13.5847C63.0162 13.5233 63.0462 13.4518 63.0462 13.37L63.0562 13.3496Z" fill="url(#paint6_linear_1_534)"/>
<path d="M34.4441 31.9436C32.4133 31.9436 30.5825 31.5245 28.9518 30.6761C27.3212 29.8175 26.0206 28.642 25.0602 27.1393C24.0998 25.6265 23.6196 23.899 23.6196 21.9364C23.6196 19.9738 24.0898 18.2463 25.0402 16.7437C26.0006 15.2308 27.3011 14.0553 28.9318 13.2069C30.5725 12.3483 32.4133 11.9189 34.4441 11.9189C36.4749 11.9189 38.3257 12.3483 39.9564 13.2069C41.587 14.0553 42.8776 15.2308 43.828 16.7437C44.7884 18.2361 45.2686 19.9738 45.2686 21.9364C45.2686 23.899 44.7884 25.6367 43.828 27.1393C42.8776 28.6317 41.587 29.8175 39.9564 30.6761C38.3257 31.5245 36.4849 31.9436 34.4441 31.9436ZM34.4641 27.1189C35.4045 27.1189 36.2548 26.894 37.0252 26.4545C37.7955 26.0149 38.3957 25.4016 38.8459 24.635C39.2861 23.8479 39.5162 22.9484 39.5162 21.9262C39.5162 20.904 39.2961 20.0147 38.8459 19.2378C38.4057 18.4507 37.7955 17.8374 37.0252 17.3979C36.2548 16.9583 35.4045 16.7335 34.4641 16.7335C33.5237 16.7335 32.6534 16.9583 31.893 17.3979C31.1327 17.8374 30.5325 18.4507 30.0923 19.2378C29.6521 20.0147 29.422 20.904 29.422 21.9262C29.422 22.9484 29.6421 23.8479 30.0923 24.635C30.5325 25.4118 31.1327 26.0149 31.893 26.4545C32.6634 26.894 33.5237 27.1189 34.4641 27.1189Z" fill="url(#paint7_linear_1_534)"/>
<path d="M97.3003 31.6471V12.8082H102.833V15.517C103.513 14.4641 104.353 13.6566 105.334 13.0842C106.334 12.5118 107.394 12.2153 108.535 12.2153C109.185 12.2153 109.855 12.3176 110.556 12.5118C111.256 12.706 111.836 12.9615 112.306 13.2682L110.006 18.0316C109.595 17.7454 109.115 17.5307 108.565 17.3672C108.025 17.1934 107.525 17.1116 107.054 17.1116C106.334 17.1116 105.654 17.3058 105.003 17.684C104.353 18.0623 103.833 18.5631 103.433 19.1764C103.033 19.7795 102.843 20.4235 102.843 21.1288V31.6574H97.3103L97.3003 31.6471Z" fill="url(#paint8_linear_1_534)"/>
<path d="M141.949 32.2398C140.278 32.2398 138.757 31.8207 137.377 30.9723C136.006 30.1137 134.916 28.9279 134.095 27.4253C133.275 25.9125 132.875 24.185 132.875 22.2326C132.875 20.2802 133.275 18.6141 134.065 17.1217C134.856 15.6088 135.946 14.4231 137.327 13.5542C138.717 12.6751 140.308 12.2254 142.099 12.2254C143.399 12.2254 144.6 12.4809 145.7 13.0022C146.801 13.5031 147.721 14.2084 148.451 15.1182V0H153.984V31.647H148.451V29.1631C147.631 30.1341 146.671 30.8906 145.55 31.4221C144.43 31.9639 143.229 32.2296 141.949 32.2296V32.2398ZM143.609 27.4356C144.58 27.4356 145.44 27.2107 146.18 26.7711C146.921 26.3214 147.511 25.6978 147.931 24.9107C148.361 24.1237 148.581 23.2344 148.581 22.2428C148.581 21.2513 148.361 20.3416 147.931 19.5545C147.511 18.7674 146.931 18.1541 146.18 17.6941C145.44 17.2443 144.58 17.0092 143.619 17.0092C142.659 17.0092 141.829 17.2341 141.078 17.6941C140.348 18.1439 139.768 18.7776 139.328 19.5749C138.897 20.362 138.677 21.2513 138.677 22.2633C138.677 23.2752 138.887 24.1441 139.308 24.9312C139.728 25.7081 140.308 26.3214 141.058 26.7711C141.799 27.2107 142.649 27.4356 143.599 27.4356H143.609Z" fill="url(#paint9_linear_1_534)"/>
<path d="M160.306 31.9023V13.0634H165.839V31.9023H160.306ZM163.077 9.13818C162.477 9.13818 161.927 8.99507 161.417 8.69864C160.926 8.39198 160.526 7.9831 160.226 7.46179C159.926 6.95069 159.776 6.37827 159.776 5.76495C159.776 5.15164 159.926 4.58944 160.226 4.08856C160.526 3.58769 160.926 3.18904 161.417 2.8926C161.917 2.58595 162.477 2.43262 163.077 2.43262C163.678 2.43262 164.228 2.58595 164.718 2.8926C165.208 3.18904 165.598 3.58769 165.889 4.08856C166.189 4.58944 166.339 5.15164 166.339 5.76495C166.339 6.37827 166.189 6.94047 165.889 7.46179C165.598 7.97288 165.208 8.39198 164.718 8.69864C164.228 8.99507 163.678 9.13818 163.077 9.13818Z" fill="url(#paint10_linear_1_534)"/>
<path d="M181.205 41.0002C178.724 41.0002 176.633 40.53 174.942 39.5998C173.251 38.6798 172.021 37.3203 171.251 35.511L175.752 33.2622C176.253 34.1311 177.003 34.8262 177.983 35.3373C178.964 35.8483 180.034 36.1141 181.185 36.1141C182.225 36.1141 183.146 35.8995 183.936 35.4701C184.726 35.051 185.346 34.4582 185.787 33.6813C186.227 32.9249 186.457 32.0356 186.457 31.0338V28.3864C185.637 29.3574 184.676 30.1139 183.556 30.6454C182.435 31.1872 181.235 31.4529 179.954 31.4529C178.284 31.4529 176.763 31.0338 175.382 30.1854C174.012 29.3268 172.921 28.141 172.101 26.6384C171.281 25.1256 170.88 23.3981 170.88 21.4457C170.88 19.4933 171.281 17.8272 172.071 16.3348C172.871 14.8219 173.972 13.6362 175.352 12.7673C176.743 11.8882 178.334 11.4385 180.104 11.4385C181.405 11.4385 182.605 11.694 183.706 12.2153C184.806 12.7162 185.727 13.4215 186.457 14.3313V12.0313H191.989V31.3916C191.989 33.2418 191.589 34.8977 190.799 36.339C190.018 37.7905 188.828 38.9251 187.237 39.7429C185.637 40.5811 183.626 40.99 181.205 40.99V41.0002ZM181.615 26.6691C182.585 26.6691 183.446 26.4442 184.186 26.0047C184.946 25.5549 185.527 24.9416 185.947 24.1647C186.367 23.3776 186.577 22.4883 186.577 21.4968C186.577 20.5053 186.357 19.5751 185.927 18.788C185.507 18.0009 184.926 17.3876 184.176 16.9276C183.436 16.4779 182.585 16.2428 181.635 16.2428C180.685 16.2428 179.844 16.4676 179.094 16.9276C178.354 17.3774 177.763 18.0112 177.333 18.8085C176.903 19.5955 176.683 20.4848 176.683 21.4968C176.683 22.5088 176.893 23.3776 177.313 24.1647C177.733 24.9416 178.314 25.5549 179.064 26.0047C179.804 26.4442 180.655 26.6691 181.605 26.6691H181.615Z" fill="url(#paint11_linear_1_534)"/>
<path d="M197.582 40.4481L203.544 28.5294L194.77 12.0415H201.113L206.765 23.0811L211.667 12.0415H218.01L203.914 40.4481H197.592H197.582Z" fill="url(#paint12_linear_1_534)"/>
<path d="M19.7181 18.3175C19.4881 17.9597 19.1379 17.6122 18.7978 17.2544C17.9874 16.5491 17.0671 15.9562 15.9166 15.3736C14.7661 14.7807 13.6056 14.1981 12.2251 13.6052C11.5348 13.3701 10.9545 13.135 10.4943 12.8999C9.9141 12.6648 9.45391 12.4297 9.11377 12.1946C8.76363 11.9595 8.42349 11.6017 8.19339 11.2542C7.9633 10.8964 7.84325 10.4262 7.84325 9.95597C7.84325 9.36311 7.9633 8.78046 8.30344 8.31025C8.53353 7.84004 9.14379 7.35962 9.60398 7.12451C5.7924 7.28806 3.92163 12.5523 5.42225 15.9664C5.5423 16.0891 5.88244 16.3242 6.00249 16.4367C6.69277 16.9069 7.50311 17.2646 8.31344 17.6122C9.35387 18.0824 10.2743 18.5526 11.0846 18.9104C11.8949 19.2681 12.5852 19.7383 13.1554 20.0859C13.7357 20.4436 14.1959 20.9138 14.426 21.384C14.7761 21.8543 14.8862 22.4471 14.8862 23.1524C14.8862 23.9804 14.6561 24.5631 14.3059 25.1559C14.0758 25.5137 13.6156 25.8612 13.1554 26.0963C17.1871 25.8612 19.268 22.212 19.7282 18.3175H19.7181Z" fill="url(#paint13_linear_1_534)"/>
<path d="M20.5285 19.7383C20.2984 19.268 20.0683 18.7978 19.7181 18.3276C19.258 22.3346 17.1771 25.8714 13.2655 26.1065C13.1454 26.2292 13.0354 26.2292 12.9153 26.3416C12.3351 26.5767 11.5348 26.6994 10.7244 26.6994C9.80405 26.6994 8.99371 26.5767 8.18338 26.3416C7.37304 26.1065 6.68276 25.7487 5.99247 25.4012C5.41223 24.931 4.842 24.5732 4.26176 24.103C3.68152 23.6328 3.22133 23.275 2.88119 22.9275L0 27.7522C0.350145 28.11 0.92038 28.5802 1.50062 29.0504C2.1909 29.5206 2.88119 29.9908 3.81157 30.461C4.73195 30.9312 5.77238 31.289 6.92286 31.6365C8.07333 31.9841 9.34386 32.1067 10.6144 32.1067C12.6852 32.1067 14.536 31.749 16.1467 31.0437C17.7573 30.3384 18.9178 29.2753 19.8382 27.9771C20.7586 26.5665 21.2188 25.0332 21.2188 23.1421C21.2188 21.7315 20.9887 20.5458 20.5285 19.728V19.7383Z" fill="url(#paint14_linear_1_534)"/>
<path d="M9.57427 7.12459C9.69432 7.12459 9.69432 7.00193 9.80436 7.00193C10.3846 6.64416 11.0748 6.53172 11.9952 6.53172C12.6855 6.53172 13.4958 6.65439 14.1861 6.88949C14.8764 7.12459 15.5667 7.3597 16.257 7.71746C16.9473 8.07523 17.5275 8.42277 17.9877 8.89298L20.4087 4.29313C19.7184 3.70026 19.0281 3.23005 18.0977 2.75985C17.1774 2.28964 16.1369 1.93187 15.0965 1.58433C14.0561 1.22656 12.7856 1.22656 11.7551 1.22656C10.3746 1.22656 9.10407 1.46167 7.9536 1.93187C6.80312 2.40208 5.88274 3.10739 4.95236 3.93536C4.14203 4.76334 3.45174 5.70375 2.99155 6.64416C2.53136 7.70724 2.30127 8.7601 2.30127 9.94583C2.30127 10.8862 2.42131 11.8267 2.76146 12.5422C3.1116 13.3702 3.57179 13.9528 4.03198 14.6581C4.49217 15.1283 4.95236 15.5985 5.41255 15.9563C4.14203 12.5422 5.87274 7.23703 9.56426 7.11437L9.57427 7.12459Z" fill="url(#paint15_linear_1_534)"/>
<mask id="mask1_1_534" style="mask-type:luminance" maskUnits="userSpaceOnUse" x="76" y="1" width="21" height="31">
<path d="M96.15 1.23682H76.0317V31.5958H96.15V1.23682Z" fill="white"/>
</mask>
<g mask="url(#mask1_1_534)">
<path d="M94.8495 5.33625C93.9891 3.97674 92.7986 2.95455 91.298 2.25946C89.7974 1.56437 88.0767 1.22705 86.1459 1.22705H76.0317V31.5963H81.8641V19.9536H84.7553C86.386 18.3692 87.2663 16.3963 87.9766 14.3417C87.7165 14.4951 87.4464 14.6279 87.1563 14.7302C86.3059 15.0368 85.3655 15.1902 84.3451 15.1902H81.8641V6.00067H84.3451C85.3655 6.00067 86.3059 6.154 87.1563 6.46066C88.0166 6.75709 88.7169 7.23752 89.2471 7.91217C89.3272 8.01439 89.3872 8.12683 89.4572 8.23927C91.8582 9.75211 93.9291 11.7556 95.5097 14.1373C95.9199 13.0231 96.14 11.7863 96.14 10.3961C96.14 8.37215 95.7098 6.68554 94.8395 5.33625H94.8495Z" fill="url(#paint16_linear_1_534)"/>
<path d="M89.4671 8.24902C89.8472 8.87256 90.0473 9.6392 90.0473 10.5898C90.0473 11.6938 89.7872 12.5831 89.257 13.2577C88.9068 13.6973 88.4867 14.0551 87.9865 14.3413C87.2762 16.3959 86.3958 18.3687 84.7651 19.9531H86.1557C88.0865 19.9531 89.8072 19.5749 91.3078 18.8287C92.8085 18.0723 93.9889 16.9785 94.8593 15.5577C95.1294 15.1181 95.3395 14.6479 95.5196 14.1471C93.9389 11.7654 91.8681 9.76186 89.4671 8.24902Z" fill="url(#paint17_linear_1_534)"/>
<path d="M81.8641 5.90869H76.0317V31.5963H81.8641V5.90869Z" fill="url(#paint18_linear_1_534)"/>
</g>
</g>
</g>
<defs>
<linearGradient id="paint0_linear_1_534" x1="112.073" y1="22.1669" x2="131.092" y2="22.1669" gradientUnits="userSpaceOnUse">
<stop stop-color="#F18232"/>
<stop offset="0.32" stop-color="#E66509"/>
<stop offset="0.68" stop-color="#FF9446"/>
<stop offset="1" stop-color="#F18232"/>
</linearGradient>
<linearGradient id="paint1_linear_1_534" x1="121.598" y1="14.5354" x2="126.731" y2="14.5354" gradientUnits="userSpaceOnUse">
<stop stop-color="#F18232"/>
<stop offset="0.32" stop-color="#E66509"/>
<stop offset="0.68" stop-color="#FF9446"/>
<stop offset="1" stop-color="#F18232"/>
</linearGradient>
<linearGradient id="paint2_linear_1_534" x1="62.5559" y1="24.3487" x2="71.5596" y2="24.3487" gradientUnits="userSpaceOnUse">
<stop stop-color="white"/>
<stop offset="1" stop-color="#E8E8E8"/>
</linearGradient>
<linearGradient id="paint3_linear_1_534" x1="62.5557" y1="4.98816" x2="67.8779" y2="4.98816" gradientUnits="userSpaceOnUse">
<stop stop-color="white"/>
<stop offset="1" stop-color="#E8E8E8"/>
</linearGradient>
<linearGradient id="paint4_linear_1_534" x1="58.0466" y1="11.7094" x2="71.5181" y2="11.7094" gradientUnits="userSpaceOnUse">
<stop stop-color="#F18232"/>
<stop offset="0.32" stop-color="#E66509"/>
<stop offset="0.68" stop-color="#FF9446"/>
<stop offset="1" stop-color="#F18232"/>
</linearGradient>
<linearGradient id="paint5_linear_1_534" x1="45.9592" y1="16.7433" x2="58.0442" y2="16.7433" gradientUnits="userSpaceOnUse">
<stop stop-color="white"/>
<stop offset="1" stop-color="#E8E8E8"/>
</linearGradient>
<linearGradient id="paint6_linear_1_534" x1="45.9979" y1="13.094" x2="63.0544" y2="13.094" gradientUnits="userSpaceOnUse">
<stop stop-color="#F18232"/>
<stop offset="0.32" stop-color="#E66509"/>
<stop offset="0.68" stop-color="#FF9446"/>
<stop offset="1" stop-color="#F18232"/>
</linearGradient>
<linearGradient id="paint7_linear_1_534" x1="21.999" y1="21.9364" x2="47.0293" y2="21.9364" gradientUnits="userSpaceOnUse">
<stop stop-color="white"/>
<stop offset="1" stop-color="#E8E8E8"/>
</linearGradient>
<linearGradient id="paint8_linear_1_534" x1="107.765" y1="25.4833" x2="96.9319" y2="14.8814" gradientUnits="userSpaceOnUse">
<stop stop-color="white"/>
<stop offset="1" stop-color="#E8E8E8"/>
</linearGradient>
<linearGradient id="paint9_linear_1_534" x1="152.743" y1="25.7796" x2="139.816" y2="8.73016" gradientUnits="userSpaceOnUse">
<stop stop-color="white"/>
<stop offset="1" stop-color="#E8E8E8"/>
</linearGradient>
<linearGradient id="paint10_linear_1_534" x1="165.588" y1="24.287" x2="163.055" y2="18.1098" gradientUnits="userSpaceOnUse">
<stop stop-color="white"/>
<stop offset="1" stop-color="#E8E8E8"/>
</linearGradient>
<linearGradient id="paint11_linear_1_534" x1="187.707" y1="36.1039" x2="177.853" y2="17.027" gradientUnits="userSpaceOnUse">
<stop stop-color="white"/>
<stop offset="1" stop-color="#E8E8E8"/>
</linearGradient>
<linearGradient id="paint12_linear_1_534" x1="216.91" y1="35.5519" x2="200.129" y2="19.1391" gradientUnits="userSpaceOnUse">
<stop stop-color="white"/>
<stop offset="1" stop-color="#E8E8E8"/>
</linearGradient>
<linearGradient id="paint13_linear_1_534" x1="18.9278" y1="31.8308" x2="4.8977" y2="0.806145" gradientUnits="userSpaceOnUse">
<stop stop-color="white"/>
<stop offset="1" stop-color="#D1D1D1"/>
</linearGradient>
<linearGradient id="paint14_linear_1_534" x1="-0.260107" y1="31.4423" x2="22.2268" y2="21.6118" gradientUnits="userSpaceOnUse">
<stop stop-color="white"/>
<stop offset="1" stop-color="#D1D1D1"/>
</linearGradient>
<linearGradient id="paint15_linear_1_534" x1="0.790641" y1="11.2133" x2="16.8808" y2="5.30805" gradientUnits="userSpaceOnUse">
<stop stop-color="white"/>
<stop offset="1" stop-color="#D1D1D1"/>
</linearGradient>
<linearGradient id="paint16_linear_1_534" x1="76.0317" y1="16.4168" x2="96.14" y2="16.4168" gradientUnits="userSpaceOnUse">
<stop stop-color="white"/>
<stop offset="0.41" stop-color="#E8E8E8"/>
</linearGradient>
<linearGradient id="paint17_linear_1_534" x1="87.1561" y1="16.5901" x2="93.1771" y2="11.495" gradientUnits="userSpaceOnUse">
<stop stop-color="white"/>
<stop offset="1" stop-color="#D1D1D1"/>
</linearGradient>
<linearGradient id="paint18_linear_1_534" x1="78.9529" y1="31.5963" x2="78.9529" y2="5.90869" gradientUnits="userSpaceOnUse">
<stop stop-color="white"/>
<stop offset="1" stop-color="#D1D1D1"/>
</linearGradient>
<clipPath id="clip0_1_534">
<rect width="218" height="41" fill="white"/>
</clipPath>
</defs>
</svg>
