<svg version="1.2" xmlns="http://www.w3.org/2000/svg" viewBox="0 0 119 119" width="119" height="119"><defs><clipPath clipPathUnits="userSpaceOnUse" id="cp1"><path d="m146-24v167h-174v-167z"/></clipPath><clipPath clipPathUnits="userSpaceOnUse" id="cp2"><path d="m68.75 46.48v27h-21v-27z"/></clipPath></defs><style>.a{fill:#fff}.b{fill:none;stroke:#1a1a1a;stroke-width:.7;stroke-dasharray:1}.c{fill:#1a1a1a}.d{fill:none;stroke:#fff;stroke-linecap:round;stroke-linejoin:round;stroke-width:1.5}</style><g clip-path="url(#cp1)"><path class="a" d="m22.6 43.8c8.7-19.8 31.8-28.7 51.6-20 19.8 8.8 28.7 31.8 20 51.6-8.8 19.8-31.8 28.8-51.6 20-19.8-8.7-28.8-31.8-20-51.6z"/><path class="b" d="m28 46.4c7.4-16.9 27.1-24.5 44-17 16.9 7.4 24.6 27.1 17.1 44-7.5 16.9-27.2 24.6-44.1 17.1-16.9-7.5-24.5-27.2-17-44.1z"/><path class="c" d="m30.4 59.9c0-15.4 12.4-27.8 27.8-27.8 15.4 0 27.8 12.4 27.8 27.8 0 15.4-12.4 27.8-27.8 27.8-15.4 0-27.8-12.4-27.8-27.8z"/><path fill-rule="evenodd" class="a" d="m118.7 56.6v3.1c0 2.2-0.9 3.4-2.6 3.4h-0.5c-0.9 0-1.5-0.6-1.9-1.4-0.3 1.2-1.1 1.9-2.3 1.9h-0.4c-1.9 0-2.8-1.4-2.8-3.5v-3.5zm-1 1.2h-3.6v1.9c0 1.5 0.7 2.2 1.6 2.2h0.4c1 0 1.6-0.7 1.6-2.3zm-4.5 0h-4v2.3c0 1.6 0.8 2.4 1.8 2.4h0.4c1.1 0 1.8-0.8 1.8-2.4z"/><path fill-rule="evenodd" class="a" d="m109.3 72.4l1-4.4-2.5-1.5 0.2-1.2 9.5 5.8-0.3 1.2-11 1.7 0.2-1.2zm6.7-1l-4.8-2.9-0.8 3.7z"/><path class="a" d="m109.9 77.3l2.9 1.2c2.3 1 2.9 2.9 2 5.1-1 2-2.7 2.6-4.6 2l0.4-1.1c1.5 0.5 2.6 0.1 3.2-1.3 0.7-1.7 0.1-2.9-1.5-3.6l-2.9-1.2c-1.5-0.6-2.9-0.3-3.6 1.4-0.6 1.4-0.3 2.5 1.2 3.2l-0.5 1c-2-0.9-2.5-2.7-1.7-4.6 1-2.2 2.8-3 5.1-2.1z"/><path class="a" d="m104.5 90.2l-0.6-2.2-2.5-1.7 0.6-1 8.6 6-0.6 0.9-4.8-3.3 2.1 7.2-0.8 1.1-1.7-5.8-7.2 0.2 0.9-1.2z"/><path class="a" d="m90.1 110l-4.9-8 1-0.6 4.9 8 2.7-1.6 0.5 0.8-6.3 4-0.5-0.9z"/><path fill-rule="evenodd" class="a" d="m81.3 107.3l1 2.9c0.9 2.4-0.1 4.2-2.3 5-2.3 0.9-4.1 0.2-5-2.2l-1.1-2.9c-0.8-2.4 0.2-4.2 2.4-5 2.3-0.9 4.1-0.2 5 2.2zm-0.1 3.3l-1-2.9c-0.6-1.6-1.8-2.3-3.5-1.6-1.8 0.6-2.2 2-1.6 3.6l1 2.9c0.6 1.6 1.8 2.3 3.5 1.7 1.8-0.7 2.2-2 1.6-3.7z"/><path class="a" d="m58.6 116.3c0.1-1-0.3-1.3-1.7-1.9l-1.1-0.5c-2-0.8-2.5-1.6-2.5-3.1 0.1-1.8 1.2-2.8 3.5-2.7 2.2 0.1 3.4 1.2 3.5 3.4l-1.1-0.1c-0.1-1.4-0.8-2.2-2.4-2.3-1.6-0.1-2.2 0.5-2.3 1.7 0 1 0.4 1.5 1.8 2.1l1.1 0.5c1.8 0.8 2.5 1.5 2.4 3 0 1.5-1.1 2.6-3.3 2.5-2.2-0.1-3.2-1.3-3.2-3.4l1.1 0.1c0.1 1.4 0.6 2.2 2.1 2.3 1.6 0 2.1-0.6 2.1-1.6z"/><path class="a" d="m44.3 115.7l2.3-9.2 1.1 0.4-2.3 9.1 3 0.8-0.2 1-7.2-1.9 0.3-1z"/><path fill-rule="evenodd" class="a" d="m34.1 105.5l4 2 2.1-2 1.1 0.6-8.1 7.7-1.1-0.6 1.1-11.1 1.2 0.5zm-0.7 6.7l4-3.9-3.4-1.7z"/><path fill-rule="evenodd" class="a" d="m30.3 99.8l0.9 0.7-6.4 8.3-2.3-1.8c-2-1.5-2.2-3-1.1-4.5l0.3-0.5c0.8-1 2.1-1.3 3.5-0.6l0.5-5.2 1 0.9-0.5 4.9 1.5 1.1zm-5.8 7.5l2.6-3.3-1.3-1.1c-1.4-1-2.4-0.9-3.1-0.1l-0.3 0.5c-0.7 0.9-0.6 1.8 0.8 3z"/><path class="a" d="m14.2 97.6l7.1-6.2 0.8 0.9-7.2 6.2 2.1 2.3-0.8 0.7-4.8-5.6 0.7-0.7z"/><path fill-rule="evenodd" class="a" d="m0.1 56.5l0.4-3c0.2-2.3 1.2-3.3 2.9-3.2l0.4 0.1c1 0.1 1.5 0.6 1.8 1.5 0.5-1.1 1.3-1.7 2.5-1.6h0.4c1.9 0.2 2.7 1.7 2.4 3.7l-0.3 3.5zm1.1-1l3.5 0.3 0.2-2c0.2-1.4-0.4-2.1-1.3-2.2l-0.4-0.1c-1-0.1-1.6 0.6-1.8 2.1zm4.5 0.4l3.9 0.4 0.2-2.2c0.2-1.6-0.4-2.5-1.5-2.6h-0.4c-1.1-0.1-1.8 0.6-2 2.2z"/><path fill-rule="evenodd" class="a" d="m11.1 41.8l-1.4 4.2 2.3 1.8-0.4 1.2-8.8-6.8 0.4-1.2 11.2-0.6-0.4 1.2zm-6.7 0.3l4.4 3.4 1.2-3.6z"/><path class="a" d="m11 36.7l-2.7-1.4c-2.3-1.3-2.7-3.2-1.5-5.2 1.1-2 2.9-2.4 4.7-1.6l-0.5 1c-1.4-0.6-2.6-0.3-3.3 1-0.9 1.6-0.4 2.9 1.2 3.7l2.7 1.5c1.5 0.8 2.9 0.6 3.7-0.9 0.8-1.4 0.5-2.5-0.8-3.4l0.5-1c1.9 1.2 2.3 3 1.2 4.8-1.1 2.1-3 2.8-5.2 1.5z"/><path class="a" d="m17.7 24.5l0.4 2.2 2.3 2-0.8 0.9-7.9-6.8 0.7-0.9 4.4 3.8-1.3-7.4 0.9-1 1 6 7.2 0.5-1 1.1z"/><path class="a" d="m33.9 6.2l4.1 8.5-1 0.5-4.1-8.5-2.8 1.4-0.5-0.9 6.7-3.3 0.4 0.9z"/><path fill-rule="evenodd" class="a" d="m42.5 9.8l-0.8-3c-0.6-2.5 0.5-4.1 2.9-4.7 2.3-0.7 4.1 0.2 4.7 2.7l0.7 3c0.7 2.4-0.5 4.1-2.8 4.7-2.3 0.6-4.1-0.2-4.7-2.7zm0.4-3.3l0.7 3c0.4 1.6 1.5 2.5 3.3 2 1.8-0.5 2.4-1.8 2-3.4l-0.8-3c-0.4-1.7-1.5-2.5-3.3-2.1-1.8 0.5-2.4 1.8-1.9 3.5z"/><path class="a" d="m65.9 3.1c-0.1 1 0.2 1.4 1.6 2.2l1 0.5c1.9 1.1 2.3 1.9 2.1 3.4-0.2 1.8-1.4 2.7-3.7 2.3-2.2-0.3-3.2-1.5-3.2-3.7l1.2 0.2c-0.1 1.4 0.6 2.3 2.2 2.5 1.5 0.2 2.2-0.2 2.3-1.4 0.2-1-0.1-1.6-1.5-2.3l-1.1-0.6c-1.7-1-2.3-1.7-2.1-3.3 0.2-1.4 1.4-2.4 3.6-2.1 2.1 0.4 3.1 1.7 2.8 3.7l-1.1-0.2c0.1-1.4-0.4-2.2-1.9-2.5-1.5-0.2-2.1 0.4-2.2 1.3z"/><path class="a" d="m80.5 4.3l-3.2 8.9-1.1-0.5 3.2-8.8-3-1.2 0.4-0.9 6.9 2.6-0.3 1z"/><path fill-rule="evenodd" class="a" d="m89.2 16.4l-3.8-2.4-2.2 1.8-1.1-0.7 8.8-6.8 1.1 0.6-2.3 11-1.1-0.7zm1.4-6.5l-4.4 3.4 3.3 2.1z"/><path fill-rule="evenodd" class="a" d="m92.5 22.5l-0.9-0.8 7.2-7.6 2.1 1.9c1.9 1.8 1.9 3.3 0.7 4.6l-0.4 0.5c-0.9 0.9-2.2 1.1-3.6 0.2l-1 5.1-0.9-0.9 1-4.8-1.3-1.3zm6.5-6.8l-2.9 3 1.2 1.2c1.2 1.2 2.3 1.2 3 0.4l0.4-0.4c0.8-0.8 0.8-1.8-0.5-3.1z"/><path class="a" d="m108.3 26.3l-7.8 5.4-0.7-1 7.8-5.4-1.8-2.5 0.8-0.6 4.3 6.1-0.8 0.5z"/><g clip-path="url(#cp2)"><path class="d" d="m58.2 70v-19.2"/><path class="d" d="m52.1 56.9l6.1-6.1 6.2 6.1"/></g></g></svg>