<svg width="147" height="30" viewBox="0 0 147 30" fill="none" xmlns="http://www.w3.org/2000/svg">
<g clip-path="url(#clip0_10_17459)">
<path d="M140.512 25.98C140.811 26.9037 139.751 27.6685 138.969 27.0935L132.911 22.6417C132.559 22.3827 132.079 22.3827 131.727 22.6417L125.67 27.0935C124.888 27.6685 123.827 26.9037 124.126 25.98L126.461 18.7604C126.594 18.3497 126.449 17.9 126.1 17.6452L120.016 13.1996C119.235 12.6289 119.638 11.3922 120.606 11.3922H128.1C128.534 11.3922 128.919 11.1115 129.052 10.6977L131.367 3.48375C131.664 2.55782 132.974 2.55782 133.271 3.48375L135.586 10.6977C135.719 11.1115 136.104 11.3922 136.539 11.3922H144.032C144.999 11.3922 145.403 12.6288 144.622 13.1995L138.538 17.6452C138.19 17.9 138.044 18.3496 138.177 18.7604L140.512 25.98Z" fill="#F4C63C"/>
</g>
<g clip-path="url(#clip1_10_17459)">
<path d="M111.113 25.98C111.412 26.9037 110.351 27.6685 109.569 27.0935L103.512 22.6417C103.16 22.3827 102.68 22.3827 102.328 22.6417L96.2704 27.0935C95.4881 27.6685 94.4279 26.9037 94.7267 25.98L97.0621 18.7604C97.195 18.3497 97.0492 17.9 96.7006 17.6452L90.6162 13.1996C89.8352 12.6289 90.2388 11.3922 91.2062 11.3922H98.7004C99.135 11.3922 99.5198 11.1115 99.6526 10.6977L101.968 3.48375C102.265 2.55782 103.575 2.55782 103.872 3.48375L106.187 10.6977C106.32 11.1115 106.705 11.3922 107.139 11.3922H114.632C115.6 11.3922 116.003 12.6288 115.222 13.1995L109.139 17.6452C108.79 17.9 108.645 18.3496 108.777 18.7604L111.113 25.98Z" fill="#F4C63C"/>
</g>
<g clip-path="url(#clip2_10_17459)">
<path d="M81.7124 25.98C82.0112 26.9037 80.951 27.6685 80.1687 27.0935L74.1116 22.6417C73.7592 22.3827 73.2795 22.3827 72.9271 22.6417L66.87 27.0935C66.0877 27.6685 65.0275 26.9037 65.3263 25.98L67.6617 18.7604C67.7946 18.3497 67.6488 17.9 67.3002 17.6452L61.2158 13.1996C60.4348 12.6289 60.8385 11.3922 61.8058 11.3922H69.3C69.7346 11.3922 70.1194 11.1115 70.2522 10.6977L72.5672 3.48375C72.8643 2.55782 74.1744 2.55782 74.4715 3.48375L76.7865 10.6977C76.9193 11.1115 77.3041 11.3922 77.7387 11.3922H85.232C86.1993 11.3922 86.603 12.6288 85.822 13.1995L79.7385 17.6452C79.3899 17.9 79.2441 18.3496 79.377 18.7604L81.7124 25.98Z" fill="#F4C63C"/>
</g>
<g clip-path="url(#clip3_10_17459)">
<path d="M52.313 25.98C52.6118 26.9037 51.5516 27.6685 50.7693 27.0935L44.7122 22.6417C44.3598 22.3827 43.8801 22.3827 43.5277 22.6417L37.4706 27.0935C36.6883 27.6685 35.6281 26.9037 35.9269 25.98L38.2623 18.7604C38.3952 18.3497 38.2494 17.9 37.9008 17.6452L31.8164 13.1996C31.0354 12.6289 31.439 11.3922 32.4064 11.3922H39.9006C40.3352 11.3922 40.72 11.1115 40.8528 10.6977L43.1678 3.48375C43.4649 2.55782 44.775 2.55782 45.0721 3.48375L47.3871 10.6977C47.5199 11.1115 47.9047 11.3922 48.3393 11.3922H55.8326C56.7999 11.3922 57.2036 12.6288 56.4226 13.1995L50.3391 17.6452C49.9905 17.9 49.8447 18.3496 49.9776 18.7604L52.313 25.98Z" fill="#F4C63C"/>
</g>
<g clip-path="url(#clip4_10_17459)">
<path d="M22.9126 25.98C23.2114 26.9037 22.1512 27.6685 21.3689 27.0935L15.3118 22.6417C14.9594 22.3827 14.4797 22.3827 14.1273 22.6417L8.0702 27.0935C7.2879 27.6685 6.22771 26.9037 6.52652 25.98L8.86188 18.7604C8.99477 18.3497 8.849 17.9 8.50039 17.6452L2.41604 13.1996C1.63497 12.6289 2.03865 11.3922 3.006 11.3922H10.5002C10.9348 11.3922 11.3196 11.1115 11.4524 10.6977L13.7674 3.48375C14.0645 2.55782 15.3746 2.55782 15.6717 3.48375L17.9867 10.6977C18.1195 11.1115 18.5043 11.3922 18.9389 11.3922H26.4322C27.3995 11.3922 27.8032 12.6288 27.0222 13.1995L20.9387 17.6452C20.5901 17.9 20.4443 18.3496 20.5772 18.7604L22.9126 25.98Z" fill="#F4C63C"/>
</g>
<defs>
<clipPath id="clip0_10_17459">
<rect width="29.4" height="29.4" fill="white" transform="translate(117.6)"/>
</clipPath>
<clipPath id="clip1_10_17459">
<rect width="29.4" height="29.4" fill="white" transform="translate(88.2002)"/>
</clipPath>
<clipPath id="clip2_10_17459">
<rect width="29.4" height="29.4" fill="white" transform="translate(58.7998)"/>
</clipPath>
<clipPath id="clip3_10_17459">
<rect width="29.4" height="29.4" fill="white" transform="translate(29.4004)"/>
</clipPath>
<clipPath id="clip4_10_17459">
<rect width="29.4" height="29.4" fill="white"/>
</clipPath>
</defs>
</svg>
