<?xml version="1.0" encoding="UTF-8"?>
<svg xmlns="http://www.w3.org/2000/svg" width="64" height="64" viewBox="0 0 64 64" fill="none">
  <path d="M51 8C51 5.79443 49.206 4 47 4H17C14.794 4 13 5.79443 13 8V32C13 34.206 14.794 36 17 36H31.6904C33.0082 35.9702 33.0045 34.0261 31.6904 34H17C15.8975 34 15 33.1025 15 32V14H28.1719C28.9727 14 29.7266 13.688 30.293 13.1211C30.6715 12.8093 31.2527 11.9332 31.8281 12C31.8281 12 45 12 45 12C45.5527 12 46 11.5523 46 11C46 10.4477 45.5527 10 45 10H31.8281C30.6019 9.92974 29.6487 10.8752 28.8789 11.7071C28.6924 11.8931 28.4346 12 28.1719 12H15V8C15 6.89697 15.8975 6 17 6H47C48.1025 6 49 6.89697 49 8V21.2598C49.0122 22.5677 50.9829 22.577 51 21.2597L51 8Z" fill="#1A1A1A"></path>
  <path d="M25.5 8.99992C25.5223 10.3143 27.4779 10.3141 27.5 8.99988C27.4777 7.68549 25.5221 7.68568 25.5 8.99992Z" fill="#1A1A1A"></path>
  <path d="M21.5 8.99992C21.5223 10.3143 23.4779 10.3141 23.5 8.99988C23.4777 7.68549 21.5221 7.68568 21.5 8.99992Z" fill="#1A1A1A"></path>
  <path d="M17.5 8.99992C17.5223 10.3143 19.4779 10.3141 19.5 8.99988C19.4777 7.68549 17.5221 7.68568 17.5 8.99992Z" fill="#1A1A1A"></path>
  <path d="M55 10C53.6773 10.0195 53.701 11.9884 55 12C56.6543 12 58 13.3457 58 15V44H10C9.44727 44 9 44.4473 9 45C9 45.5527 9.44727 46 10 46H58V48C58 49.6543 56.6543 51 55 51H9C7.3457 51 6 49.6543 6 48V15C6 13.3457 7.3457 12 9 12C10.3209 11.985 10.3061 10.0146 8.99996 10C6.24316 10 4 12.2432 4 15V48C4 50.7568 6.24316 53 9 53H26.674L25.2454 58H20C19.4473 58 19 58.4473 19 59C19 59.5527 19.4473 60 20 60H44C45.3103 59.9713 45.3205 58.0277 44 58H38.7546L37.326 53H55C57.7568 53 60 50.7568 60 48V15C60 12.2432 57.7568 10 55 10ZM36.674 58H27.326L28.7546 53H35.2454L36.674 58Z" fill="#1A1A1A"></path>
  <path d="M43 39.0001C47.4111 39.0001 51 35.4113 51 31.0001C50.5605 20.3871 35.438 20.3902 35 31.0002C35 35.4113 38.5889 39.0001 43 39.0001ZM43 25.0001C46.3086 25.0001 49 27.6916 49 31.0001C48.7185 38.9413 37.2803 38.9392 37 31C37 27.6915 39.6914 25.0001 43 25.0001Z" fill="#F18232"></path>
  <path d="M40.293 33.707C40.6836 34.0976 41.3164 34.0976 41.707 33.707L43 32.4141L44.293 33.707C44.6836 34.0976 45.3164 34.0976 45.707 33.707C46.0976 33.3164 46.0976 32.6836 45.707 32.293L44.4141 31L45.707 29.707C46.0976 29.3164 46.0976 28.6836 45.707 28.293C45.3164 27.9023 44.6836 27.9023 44.293 28.293L43 29.5859L41.707 28.293C41.3164 27.9023 40.6836 27.9023 40.293 28.293C39.9023 28.6836 39.9023 29.3164 40.293 29.707L41.5859 31L40.293 32.293C39.9023 32.6836 39.9023 33.3164 40.293 33.707Z" fill="#F18232"></path>
  <path d="M30.793 24.707C31.1836 25.0976 31.8164 25.0976 32.207 24.707L34.707 22.207C35.0976 21.8164 35.0976 21.1836 34.707 20.793L32.207 18.293C31.8164 17.9023 31.1836 17.9023 30.793 18.293C30.4023 18.6836 30.4023 19.3164 30.793 19.707L32.5859 21.5L30.793 23.293C30.4023 23.6836 30.4023 24.3164 30.793 24.707Z" fill="#F18232"></path>
  <path d="M22.207 18.293C21.8164 17.9023 21.1836 17.9023 20.793 18.293L18.293 20.793C17.9023 21.1836 17.9023 21.8164 18.293 22.207L20.793 24.707C21.1836 25.0976 21.8164 25.0976 22.207 24.707C22.5976 24.3164 22.5976 23.6836 22.207 23.293L20.4141 21.5L22.207 19.707C22.5976 19.3164 22.5976 18.6836 22.207 18.293Z" fill="#F18232"></path>
  <path d="M26.8555 18.5529L24.3555 23.5529C24.0137 24.195 24.5278 25.0167 25.2491 25.0002C25.6162 25.0002 25.9688 24.798 26.1446 24.4475L28.6446 19.4475C29.2121 18.2638 27.4651 17.3866 26.8555 18.5529Z" fill="#F18232"></path>
</svg>
