<?xml version="1.0" encoding="UTF-8"?>
<svg xmlns="http://www.w3.org/2000/svg" width="64" height="64" viewBox="0 0 64 64" fill="none">
  <path d="M6 21H8V23H6V21Z" fill="#1A1A1A"></path>
  <path d="M10 21H12V23H10V21Z" fill="#1A1A1A"></path>
  <path d="M14 21H16V23H14V21Z" fill="#1A1A1A"></path>
  <path d="M27 56H31V58H27V56Z" fill="#1A1A1A"></path>
  <path d="M59.62 21C59.5489 21.0023 59.4789 20.9824 59.4197 20.9429C59.3606 20.9035 59.3152 20.8465 59.29 20.78C59.1126 20.2749 58.9056 19.7807 58.67 19.3C58.6433 19.2327 58.6367 19.1591 58.6509 19.0882C58.665 19.0172 58.6995 18.9518 58.75 18.9C58.9711 18.6796 59.1465 18.4178 59.2662 18.1295C59.3859 17.8412 59.4475 17.5321 59.4475 17.22C59.4475 16.9079 59.3859 16.5988 59.2662 16.3105C59.1465 16.0222 58.9711 15.7604 58.75 15.54L56.46 13.25C56.0151 12.8044 55.4118 12.5531 54.7821 12.5512C54.1524 12.5494 53.5475 12.797 53.1 13.24C53.0503 13.2938 52.9855 13.3312 52.914 13.3473C52.8426 13.3634 52.7679 13.3573 52.7 13.33C52.2193 13.0944 51.7251 12.8874 51.22 12.71C51.1535 12.6848 51.0965 12.6394 51.0571 12.5803C51.0176 12.5211 50.9977 12.4511 51 12.38C50.9984 11.7493 50.7472 11.1448 50.3012 10.6988C49.8552 10.2528 49.2507 10.0016 48.62 10H48V5C47.9976 4.20508 47.6808 3.4434 47.1187 2.8813C46.5566 2.31921 45.7949 2.00237 45 2H13C12.2051 2.00237 11.4434 2.31921 10.8813 2.8813C10.3192 3.4434 10.0024 4.20508 10 5V18H3C2.73478 18 2.48043 18.1054 2.29289 18.2929C2.10536 18.4804 2 18.7348 2 19V49C2 49.2652 2.10536 49.5196 2.29289 49.7071C2.48043 49.8946 2.73478 50 3 50H10V59C10.0024 59.7949 10.3192 60.5566 10.8813 61.1187C11.4434 61.6808 12.2051 61.9976 13 62H45C45.7949 61.9976 46.5566 61.6808 47.1187 61.1187C47.6808 60.5566 47.9976 59.7949 48 59V40H48.62C49.2507 39.9984 49.8552 39.7472 50.3012 39.3012C50.7472 38.8552 50.9984 38.2507 51 37.62C50.9977 37.5489 51.0176 37.4789 51.0571 37.4197C51.0965 37.3606 51.1535 37.3152 51.22 37.29C51.7251 37.1126 52.2193 36.9056 52.7 36.67C52.7673 36.6437 52.8408 36.6372 52.9117 36.6514C52.9826 36.6656 53.048 36.6998 53.1 36.75C53.3204 36.9711 53.5822 37.1465 53.8705 37.2662C54.1588 37.3859 54.4679 37.4475 54.78 37.4475C55.0921 37.4475 55.4012 37.3859 55.6895 37.2662C55.9778 37.1465 56.2396 36.9711 56.46 36.75L58.75 34.46C59.1956 34.0151 59.4469 33.4118 59.4488 32.7821C59.4506 32.1524 59.203 31.5475 58.76 31.1C58.7062 31.0503 58.6688 30.9855 58.6527 30.914C58.6366 30.8426 58.6427 30.7679 58.67 30.7C58.9056 30.2193 59.1126 29.7251 59.29 29.22C59.3152 29.1535 59.3606 29.0965 59.4197 29.0571C59.4789 29.0176 59.5489 28.9977 59.62 29C60.2507 28.9984 60.8552 28.7472 61.3012 28.3012C61.7472 27.8552 61.9984 27.2507 62 26.62V23.38C61.9984 22.7493 61.7472 22.1448 61.3012 21.6988C60.8552 21.2528 60.2507 21.0016 59.62 21ZM4 20H36V24H4V20ZM4 48V26H36V48H4ZM46 59C46 59.2652 45.8946 59.5196 45.7071 59.7071C45.5196 59.8946 45.2652 60 45 60H13C12.7348 60 12.4804 59.8946 12.2929 59.7071C12.1054 59.5196 12 59.2652 12 59V54H46V59ZM46 52H12V50H37C37.2652 50 37.5196 49.8946 37.7071 49.7071C37.8946 49.5196 38 49.2652 38 49V19C38 18.7348 37.8946 18.4804 37.7071 18.2929C37.5196 18.1054 37.2652 18 37 18H12V8H46V52ZM46 6H12V5C12 4.73478 12.1054 4.48043 12.2929 4.29289C12.4804 4.10536 12.7348 4 13 4H45C45.2652 4 45.5196 4.10536 45.7071 4.29289C45.8946 4.48043 46 4.73478 46 5V6ZM48 22.18C48.5846 22.3848 49.091 22.7661 49.4494 23.2713C49.8077 23.7765 50.0002 24.3806 50.0002 25C50.0002 25.6194 49.8077 26.2235 49.4494 26.7287C49.091 27.2339 48.5846 27.6152 48 27.82V22.18ZM48 29.9C49.1303 29.6705 50.1465 29.0573 50.8764 28.1643C51.6063 27.2712 52.005 26.1534 52.005 25C52.005 23.8466 51.6063 22.7288 50.8764 21.8357C50.1465 20.9427 49.1303 20.3295 48 20.1V18.08C49.6649 18.3191 51.1877 19.1504 52.2893 20.4214C53.3908 21.6925 53.9972 23.3181 53.9972 25C53.9972 26.6819 53.3908 28.3075 52.2893 29.5786C51.1877 30.8496 49.6649 31.6809 48 31.92V29.9ZM60 26.62C60 26.7208 59.96 26.8174 59.8887 26.8887C59.8174 26.96 59.7208 27 59.62 27C59.131 26.9965 58.6531 27.146 58.2533 27.4275C57.8534 27.709 57.5516 28.1085 57.39 28.57C57.2478 28.9989 57.074 29.4168 56.87 29.82C56.6609 30.262 56.5938 30.7579 56.678 31.2396C56.7621 31.7213 56.9934 32.1651 57.34 32.51C57.3758 32.5451 57.404 32.5872 57.4229 32.6336C57.4418 32.6801 57.451 32.7299 57.45 32.78C57.4516 32.8287 57.4426 32.8772 57.4236 32.9221C57.4046 32.967 57.3761 33.0072 57.34 33.04L55.04 35.34C55.0057 35.3756 54.9645 35.404 54.919 35.4233C54.8734 35.4427 54.8245 35.4527 54.775 35.4527C54.7255 35.4527 54.6766 35.4427 54.631 35.4233C54.5855 35.404 54.5443 35.3756 54.51 35.34C54.1666 34.9944 53.7245 34.7636 53.2446 34.6795C52.7647 34.5953 52.2705 34.6619 51.83 34.87C51.4225 35.0723 51.0015 35.246 50.57 35.39C50.1085 35.5516 49.709 35.8534 49.4275 36.2533C49.146 36.6531 48.9965 37.131 49 37.62C49 37.7208 48.96 37.8174 48.8887 37.8887C48.8174 37.96 48.7208 38 48.62 38H48V33.94C50.1926 33.6855 52.2152 32.6342 53.6833 30.9859C55.1513 29.3376 55.9625 27.2073 55.9625 25C55.9625 22.7927 55.1513 20.6624 53.6833 19.0141C52.2152 17.3658 50.1926 16.3145 48 16.06V12H48.62C48.7208 12 48.8174 12.04 48.8887 12.1113C48.96 12.1826 49 12.2792 49 12.38C48.9965 12.869 49.146 13.3469 49.4275 13.7467C49.709 14.1466 50.1085 14.4484 50.57 14.61C50.9989 14.7522 51.4168 14.926 51.82 15.13C52.2621 15.3387 52.7579 15.4055 53.2395 15.3214C53.7211 15.2372 54.1648 15.0062 54.51 14.66C54.5443 14.6244 54.5855 14.596 54.631 14.5767C54.6766 14.5573 54.7255 14.5473 54.775 14.5473C54.8245 14.5473 54.8734 14.5573 54.919 14.5767C54.9645 14.596 55.0057 14.6244 55.04 14.66L57.34 16.96C57.3761 16.9928 57.4046 17.033 57.4236 17.0779C57.4426 17.1228 57.4516 17.1713 57.45 17.22C57.451 17.2701 57.4418 17.3199 57.4229 17.3664C57.404 17.4128 57.3758 17.4549 57.34 17.49C56.994 17.8332 56.763 18.2752 56.6788 18.7553C56.5946 19.2353 56.6614 19.7296 56.87 20.17C57.0723 20.5775 57.246 20.9985 57.39 21.43C57.5516 21.8915 57.8534 22.291 58.2533 22.5725C58.6531 22.854 59.131 23.0035 59.62 23C59.7208 23 59.8174 23.04 59.8887 23.1113C59.96 23.1826 60 23.2792 60 23.38V26.62Z" fill="#1A1A1A"></path>
  <path d="M30 43V30C30 29.7348 29.8946 29.4804 29.7071 29.2929C29.5196 29.1054 29.2652 29 29 29H25C24.7348 29 24.4804 29.1054 24.2929 29.2929C24.1054 29.4804 24 29.7348 24 30V43H23V34C23 33.7348 22.8946 33.4804 22.7071 33.2929C22.5196 33.1054 22.2652 33 22 33H18C17.7348 33 17.4804 33.1054 17.2929 33.2929C17.1054 33.4804 17 33.7348 17 34V43H16V37C16 36.7348 15.8946 36.4804 15.7071 36.2929C15.5196 36.1054 15.2652 36 15 36H11C10.7348 36 10.4804 36.1054 10.2929 36.2929C10.1054 36.4804 10 36.7348 10 37V43H8V45H32V43H30ZM14 43H12V38H14V43ZM21 43H19V35H21V43ZM28 43H26V31H28V43Z" fill="#F18232"></path>
  <path d="M17 10H21V12H17V10Z" fill="#1A1A1A"></path>
  <path d="M23 10H40V12H23V10Z" fill="#F18232"></path>
  <path d="M17 14H32V16H17V14Z" fill="#F18232"></path>
  <path d="M34 14H40V16H34V14Z" fill="#1A1A1A"></path>
</svg>
