<?xml version="1.0" encoding="UTF-8"?>
<svg xmlns="http://www.w3.org/2000/svg" width="64" height="64" viewBox="0 0 64 64" fill="none">
  <path d="M24 21H23C22.7348 21 22.4804 21.1054 22.2929 21.2929C22.1054 21.4804 22 21.7348 22 22C22 22.2652 22.1054 22.5196 22.2929 22.7071C22.4804 22.8946 22.7348 23 23 23H24C24.2652 23 24.5196 22.8946 24.7071 22.7071C24.8946 22.5196 25 22.2652 25 22C25 21.7348 24.8946 21.4804 24.7071 21.2929C24.5196 21.1054 24.2652 21 24 21Z" fill="#F18232"></path>
  <path d="M28 21H27C26.7348 21 26.4804 21.1054 26.2929 21.2929C26.1054 21.4804 26 21.7348 26 22C26 22.2652 26.1054 22.5196 26.2929 22.7071C26.4804 22.8946 26.7348 23 27 23H28C28.2652 23 28.5196 22.8946 28.7071 22.7071C28.8946 22.5196 29 22.2652 29 22C29 21.7348 28.8946 21.4804 28.7071 21.2929C28.5196 21.1054 28.2652 21 28 21Z" fill="#F18232"></path>
  <path d="M32 21H31C30.7348 21 30.4804 21.1054 30.2929 21.2929C30.1054 21.4804 30 21.7348 30 22C30 22.2652 30.1054 22.5196 30.2929 22.7071C30.4804 22.8946 30.7348 23 31 23H32C32.2652 23 32.5196 22.8946 32.7071 22.7071C32.8946 22.5196 33 22.2652 33 22C33 21.7348 32.8946 21.4804 32.7071 21.2929C32.5196 21.1054 32.2652 21 32 21Z" fill="#F18232"></path>
  <path d="M39.555 34.1681L36.555 32.1681C36.4457 32.0952 36.3232 32.0446 36.1944 32.0191C36.0655 31.9935 35.9329 31.9936 35.8041 32.0194C35.6753 32.0451 35.5529 32.0959 35.4437 32.169C35.3346 32.242 35.2409 32.3359 35.168 32.4451C35.0951 32.5544 35.0445 32.6769 35.0189 32.8058C34.9934 32.9346 34.9935 33.0672 35.0192 33.196C35.045 33.3248 35.0958 33.4473 35.1689 33.5564C35.2419 33.6656 35.3357 33.7592 35.445 33.8321L37.2 35.0001L35.448 36.1681C35.2273 36.3153 35.0742 36.5441 35.0222 36.8043C34.9703 37.0644 35.0238 37.3345 35.171 37.5551C35.3182 37.7758 35.547 37.9289 35.8071 37.9809C36.0672 38.0328 36.3373 37.9793 36.558 37.8321L39.558 35.8321C39.695 35.7408 39.8073 35.6171 39.8849 35.4719C39.9626 35.3268 40.0032 35.1647 40.0032 35.0001C40.0032 34.8355 39.9626 34.6734 39.8849 34.5283C39.8073 34.3832 39.695 34.2594 39.558 34.1681H39.555Z" fill="#F18232"></path>
  <path d="M28.832 32.4452C28.7591 32.3359 28.6654 32.2421 28.5563 32.169C28.4471 32.0959 28.3247 32.0451 28.1959 32.0194C28.0671 31.9936 27.9345 31.9935 27.8056 32.0191C27.6768 32.0446 27.5542 32.0953 27.445 32.1682L24.445 34.1682C24.308 34.2595 24.1957 34.3832 24.1181 34.5284C24.0404 34.6735 23.9998 34.8356 23.9998 35.0002C23.9998 35.1648 24.0404 35.3269 24.1181 35.472C24.1957 35.6171 24.308 35.7409 24.445 35.8322L27.445 37.8322C27.6656 37.9794 27.9357 38.0329 28.1959 37.9809C28.456 37.929 28.6848 37.7758 28.832 37.5552C28.9792 37.3345 29.0327 37.0644 28.9807 36.8043C28.9288 36.5442 28.7756 36.3154 28.555 36.1682L26.8 35.0002L28.552 33.8322C28.6615 33.7595 28.7556 33.666 28.829 33.557C28.9023 33.4479 28.9535 33.3255 28.9795 33.1967C29.0055 33.0679 29.0058 32.9352 28.9805 32.8063C28.9552 32.6773 28.9047 32.5546 28.832 32.4452Z" fill="#F18232"></path>
  <path d="M33.242 30.0297C32.9849 29.9656 32.7128 30.0061 32.4855 30.1424C32.2583 30.2788 32.0944 30.4997 32.03 30.7567L30.03 38.7567C29.9655 39.014 30.0059 39.2863 30.1423 39.5138C30.2786 39.7413 30.4997 39.9053 30.757 39.9697C30.8364 39.9899 30.918 40 31 39.9997C31.2227 39.9995 31.439 39.9249 31.6146 39.7878C31.7901 39.6506 31.9148 39.4588 31.969 39.2427L33.969 31.2427C34.0334 30.9855 33.993 30.7132 33.8567 30.4857C33.7203 30.2582 33.4992 30.0942 33.242 30.0297Z" fill="#F18232"></path>
  <path d="M50 13.0001C48.8458 13.0002 47.6975 13.1652 46.59 13.4901C45.8005 10.2153 43.9322 7.30133 41.2858 5.21707C38.6393 3.13282 35.3686 1.99951 32 1.99951C28.6314 1.99951 25.3607 3.13282 22.7142 5.21707C20.0678 7.30133 18.1995 10.2153 17.41 13.4901C15.6194 12.9625 13.7304 12.8593 11.893 13.1889C10.0556 13.5184 8.32021 14.2716 6.8246 15.3887C5.32898 16.5058 4.11427 17.9561 3.2768 19.6245C2.43934 21.2928 2.00218 23.1334 2 25.0001C1.99892 26.6866 2.35478 28.3542 3.04419 29.8933C3.73359 31.4324 4.74094 32.8081 6 33.9301V49.0001C6.00238 49.795 6.31921 50.5567 6.8813 51.1188C7.4434 51.6809 8.20508 51.9978 9 52.0001H26V56.0001H21C20.2051 56.0025 19.4434 56.3193 18.8813 56.8814C18.3192 57.4435 18.0024 58.2052 18 59.0001V61.0001C18 61.2653 18.1054 61.5197 18.2929 61.7072C18.4804 61.8948 18.7348 62.0001 19 62.0001H45C45.2652 62.0001 45.5196 61.8948 45.7071 61.7072C45.8946 61.5197 46 61.2653 46 61.0001V59.0001C45.9976 58.2052 45.6808 57.4435 45.1187 56.8814C44.5566 56.3193 43.7949 56.0025 43 56.0001H38V52.0001H55C55.7949 51.9978 56.5566 51.6809 57.1187 51.1188C57.6808 50.5567 57.9976 49.795 58 49.0001V33.9201C59.8116 32.302 61.0887 30.1715 61.6619 27.8111C62.2352 25.4507 62.0775 22.9718 61.2099 20.703C60.3423 18.4342 58.8057 16.4826 56.8037 15.107C54.8018 13.7314 52.429 12.9966 50 13.0001ZM43 58.0001C43.2652 58.0001 43.5196 58.1055 43.7071 58.293C43.8946 58.4806 44 58.7349 44 59.0001V60.0001H20V59.0001C20 58.7349 20.1054 58.4806 20.2929 58.293C20.4804 58.1055 20.7348 58.0001 21 58.0001H43ZM28 56.0001V52.0001H36V56.0001H28ZM56 49.0001C56 49.2653 55.8946 49.5197 55.7071 49.7072C55.5196 49.8948 55.2652 50.0001 55 50.0001H9C8.73479 50.0001 8.48043 49.8948 8.2929 49.7072C8.10536 49.5197 8 49.2653 8 49.0001V46.0001H56V49.0001ZM43 26.0001V44.0001H21V26.0001H43ZM21 24.0001V21.0001C21 20.7349 21.1054 20.4806 21.2929 20.293C21.4804 20.1055 21.7348 20.0001 22 20.0001H42C42.2652 20.0001 42.5196 20.1055 42.7071 20.293C42.8946 20.4806 43 20.7349 43 21.0001V24.0001H21ZM51 34.9501V29.4101L52.29 30.7101C52.4796 30.896 52.7345 31.0002 53 31.0002C53.2655 31.0002 53.5204 30.896 53.71 30.7101C53.8974 30.5213 54.0025 30.2661 54.0025 30.0001C54.0025 29.7341 53.8974 29.4789 53.71 29.2901L50.71 26.2901C50.5212 26.1028 50.266 25.9976 50 25.9976C49.734 25.9976 49.4788 26.1028 49.29 26.2901L46.29 29.2901C46.1017 29.4784 45.9959 29.7338 45.9959 30.0001C45.9959 30.2664 46.1017 30.5218 46.29 30.7101C46.4783 30.8984 46.7337 31.0042 47 31.0042C47.2663 31.0042 47.5217 30.8984 47.71 30.7101L49 29.4101V36.0001C49 36.2653 49.1054 36.5197 49.2929 36.7072C49.4804 36.8948 49.7348 37.0001 50 37.0001C52.1078 36.9979 54.1776 36.4391 56 35.3801V44.0001H45V21.0001C44.9976 20.2052 44.6808 19.4435 44.1187 18.8814C43.5566 18.3193 42.7949 18.0025 42 18.0001H22C21.2051 18.0025 20.4434 18.3193 19.8813 18.8814C19.3192 19.4435 19.0024 20.2052 19 21.0001V44.0001H8V35.3801C9.52846 36.272 11.2366 36.8118 13 36.9601V40.5901L11.71 39.2901C11.5217 39.1018 11.2663 38.996 11 38.996C10.7337 38.996 10.4783 39.1018 10.29 39.2901C10.1017 39.4784 9.99591 39.7338 9.99591 40.0001C9.99591 40.2664 10.1017 40.5218 10.29 40.7101L13.29 43.7101C13.4796 43.896 13.7345 44.0002 14 44.0002C14.2655 44.0002 14.5204 43.896 14.71 43.7101L17.71 40.7101C17.8983 40.5218 18.0041 40.2664 18.0041 40.0001C18.0041 39.7338 17.8983 39.4784 17.71 39.2901C17.5217 39.1018 17.2663 38.996 17 38.996C16.7337 38.996 16.4783 39.1018 16.29 39.2901L15 40.5901V36.0001C15 35.7349 14.8946 35.4806 14.7071 35.293C14.5196 35.1055 14.2652 35.0001 14 35.0001C12.5243 34.9979 11.0675 34.6692 9.73385 34.0375C8.40025 33.4058 7.22298 32.4867 6.2865 31.3463C5.35003 30.2059 4.67756 28.8723 4.31733 27.4413C3.9571 26.0103 3.91804 24.5173 4.20296 23.0694C4.48788 21.6215 5.08971 20.2546 5.96528 19.0667C6.84085 17.8789 7.96845 16.8996 9.2672 16.199C10.566 15.4984 12.0037 15.0939 13.4772 15.0146C14.9507 14.9353 16.4235 15.183 17.79 15.7401C17.9298 15.7979 18.081 15.8232 18.232 15.8141C18.383 15.8051 18.53 15.7618 18.6619 15.6877C18.7938 15.6136 18.9072 15.5105 18.9935 15.3862C19.0797 15.2619 19.1367 15.1196 19.16 14.9701C19.6442 11.9128 21.2033 9.12861 23.5571 7.11828C25.9108 5.10795 28.9046 4.00345 32 4.00345C35.0954 4.00345 38.0892 5.10795 40.443 7.11828C42.7967 9.12861 44.3559 11.9128 44.84 14.9701C44.8633 15.1196 44.9203 15.2619 45.0066 15.3862C45.0928 15.5105 45.2062 15.6136 45.3381 15.6877C45.47 15.7618 45.617 15.8051 45.768 15.8141C45.919 15.8232 46.0702 15.7979 46.21 15.7401C47.5372 15.1999 48.9651 14.9513 50.3968 15.011C51.8285 15.0707 53.2307 15.4375 54.5083 16.0863C55.7859 16.7352 56.9091 17.6511 57.8019 18.772C58.6947 19.8929 59.3361 21.1925 59.6828 22.5829C60.0295 23.9733 60.0734 25.4219 59.8113 26.8307C59.5493 28.2395 58.9876 29.5756 58.1642 30.7484C57.3408 31.9211 56.275 32.9033 55.039 33.6282C53.8029 34.3531 52.4255 34.804 51 34.9501Z" fill="#1A1A1A"></path>
  <path d="M33 47H31C30.7348 47 30.4804 47.1054 30.2929 47.2929C30.1054 47.4804 30 47.7348 30 48C30 48.2652 30.1054 48.5196 30.2929 48.7071C30.4804 48.8946 30.7348 49 31 49H33C33.2652 49 33.5196 48.8946 33.7071 48.7071C33.8946 48.5196 34 48.2652 34 48C34 47.7348 33.8946 47.4804 33.7071 47.2929C33.5196 47.1054 33.2652 47 33 47Z" fill="#1A1A1A"></path>
</svg>
