<?xml version="1.0" encoding="UTF-8"?>
<svg xmlns="http://www.w3.org/2000/svg" width="64" height="64" viewBox="0 0 64 64" fill="none">
  <path d="M53.44 6.69064H49.4351V5.07125C49.4351 2.89913 47.6703 1.13428 45.4982 1.13428H18.4921C16.3297 1.13428 14.5648 2.89913 14.5648 5.07125V6.69064H10.5503C6.95272 6.69064 4.03394 9.60943 4.03394 13.207V45.847C4.03394 49.4446 6.95272 52.3731 10.5503 52.3731H23.6218V57.2797H23.3018C21.4206 57.2797 19.8885 58.8119 19.8885 60.6931V62.0313C19.8885 62.487 20.257 62.8652 20.7224 62.8652H43.2776C43.7333 62.8652 44.1115 62.4967 44.1115 62.0313V60.6931C44.1115 58.8119 42.5794 57.2797 40.6982 57.2797H40.3782V52.3731H53.44C57.0376 52.3731 59.9661 49.4446 59.9661 45.847V13.207C59.9661 9.61913 57.0376 6.69064 53.44 6.69064ZM14.5648 41.3961H11.1321C10.3661 41.3961 9.73575 40.7755 9.73575 40.0094V13.9925C9.73575 13.2264 10.3661 12.5961 11.1321 12.5961H14.5648V41.3961ZM16.2327 10.424H47.7673V41.3961H16.2327V20.7028V10.424ZM49.4351 12.5961H52.8679C53.6339 12.5961 54.2545 13.2264 54.2545 13.9925V40.0094C54.2545 40.7755 53.6339 41.3961 52.8679 41.3961H49.4351V12.5961ZM18.4921 2.80216H45.4982C46.7491 2.80216 47.7673 3.82034 47.7673 5.07125V8.7561H16.2327V5.07125C16.2327 3.82034 17.2412 2.80216 18.4921 2.80216ZM42.4436 60.6931V61.1973H21.5564V60.6931C21.5564 59.7331 22.3418 58.9476 23.3018 58.9476H40.6982C41.6582 58.9476 42.4436 59.7331 42.4436 60.6931ZM38.7103 57.2894H25.2897V52.3828H38.7103V57.2894ZM58.2982 45.8567C58.2982 48.5331 56.1164 50.7149 53.44 50.7149H10.5503C7.87394 50.7149 5.70181 48.5331 5.70181 45.8567V13.207C5.70181 10.5306 7.87394 8.35852 10.5503 8.35852H14.5648V10.9282H11.1321C9.44484 10.9282 8.06787 12.3052 8.06787 13.9925V40.0094C8.06787 41.687 9.44484 43.064 11.1321 43.064H52.8679C54.5454 43.064 55.9224 41.6967 55.9224 40.0094V13.9925C55.9224 12.3052 54.5551 10.9282 52.8679 10.9282H49.4351V8.35852H53.44C56.1164 8.35852 58.2982 10.5306 58.2982 13.207V45.8567Z" fill="#1A1A1A"></path>
  <path d="M32 44.082C30.5067 44.082 29.2946 45.2942 29.2946 46.7875C29.2946 48.2808 30.5067 49.4929 32 49.4929C33.4933 49.4929 34.7055 48.2808 34.7055 46.7875C34.7055 45.2942 33.4836 44.082 32 44.082ZM32 47.8154C31.4279 47.8154 30.9624 47.3499 30.9624 46.7778C30.9624 46.2057 31.4279 45.7402 32 45.7402C32.5721 45.7402 33.0376 46.2057 33.0376 46.7778C33.0376 47.3499 32.5721 47.8154 32 47.8154Z" fill="#1A1A1A"></path>
  <path d="M32.223 32.5523C35.2776 32.5523 37.7697 30.0699 37.7697 27.0057C37.7697 23.9511 35.2776 21.459 32.223 21.459C29.1685 21.459 26.6764 23.9511 26.6764 27.0057C26.6764 30.0602 29.1685 32.5523 32.223 32.5523ZM32.223 23.1269C34.3661 23.1269 36.1018 24.8626 36.1018 27.0057C36.1018 29.1487 34.3661 30.8844 32.223 30.8844C30.08 30.8844 28.3442 29.1487 28.3442 27.0057C28.3442 24.8626 30.08 23.1269 32.223 23.1269Z" fill="#F18232"></path>
  <path d="M21.6339 30.012L22.3515 30.1381C22.5358 30.7296 22.7685 31.292 23.0594 31.8448L22.5261 32.6108C22.1479 33.1441 22.2061 33.8617 22.6715 34.3272L24.863 36.5187C25.4061 37.0617 26.2497 37.1393 26.88 36.6932L27.4812 36.2666C28.0242 36.5478 28.5964 36.7902 29.1879 36.9744L29.3624 37.9635C29.4788 38.5648 30.0024 39.0108 30.6133 39.0108H33.9685C34.6279 39.0108 35.1806 38.5454 35.2873 37.9054L35.4521 36.9841C36.0339 36.7999 36.6061 36.5672 37.1491 36.2763L37.7503 36.7029C38.3806 37.1393 39.2242 37.0617 39.7673 36.5284L41.9685 34.3272C42.4242 33.8617 42.4824 33.1441 42.1139 32.6205L41.5709 31.8448C41.8521 31.3017 42.0945 30.7296 42.2788 30.1381L43.2 29.9829C43.84 29.8666 44.3055 29.3138 44.3055 28.6641V25.5611C44.3055 24.7951 43.7527 24.1357 42.9964 24.0096L42.2691 23.8835C42.0849 23.292 41.8424 22.7199 41.5612 22.1769L41.9879 21.566C42.4242 20.9357 42.3564 20.0823 41.8133 19.549L39.7576 17.5029C39.2145 16.9599 38.3709 16.892 37.7406 17.3284L37.1394 17.7551C36.5964 17.4641 36.0242 17.2314 35.4327 17.0472L35.3067 16.3199C35.1709 15.5635 34.5212 15.0205 33.7552 15.0205H30.8655C30.0994 15.0205 29.4497 15.5635 29.3139 16.3199L29.1879 17.0472C28.5964 17.2314 28.0242 17.4641 27.4812 17.7551L26.88 17.3284C26.2497 16.892 25.4061 16.9599 24.863 17.5029L22.6715 19.6847C22.2061 20.1405 22.1382 20.8678 22.5164 21.4108L23.0594 22.1769C22.7685 22.7199 22.5358 23.292 22.3515 23.8835L21.4303 24.0484C20.7903 24.1647 20.3152 24.7175 20.3152 25.3672V28.4702C20.3249 29.2266 20.8776 29.8763 21.6339 30.012ZM21.9927 25.629L23.0109 25.4448C23.4182 25.3769 23.7479 25.0763 23.8545 24.669C24.0485 23.9611 24.3297 23.2823 24.6885 22.6617C24.8921 22.3029 24.8727 21.8569 24.64 21.5175L24.0485 20.6641L25.9976 18.7151L26.8509 19.3066C27.1903 19.5393 27.6364 19.5587 27.9952 19.3551C28.6255 18.9963 29.3042 18.7151 30.0121 18.5211C30.4097 18.4144 30.7103 18.0848 30.7782 17.6775L30.9624 16.6593H33.7067L33.8909 17.6775C33.9588 18.0848 34.2594 18.4144 34.6667 18.5211C35.3649 18.7151 36.0436 18.9963 36.6836 19.3551C37.0424 19.5587 37.4885 19.5393 37.8279 19.3066L38.6715 18.7151L40.6206 20.6641L40.0291 21.5175C39.777 21.8569 39.7576 22.3029 39.9612 22.6617C40.32 23.292 40.6012 23.9611 40.7952 24.669C40.9018 25.0666 41.2315 25.3672 41.6388 25.4448L42.6667 25.629V28.3829L41.6582 28.5575C41.2509 28.6254 40.9212 28.926 40.8049 29.3332C40.6109 30.0411 40.3297 30.7199 39.9709 31.3405C39.7673 31.6993 39.777 32.1454 40.0194 32.4848L40.6109 33.3381L38.6618 35.2872L37.8182 34.6957C37.4788 34.4629 37.0327 34.4338 36.6739 34.6472C36.0436 35.006 35.3649 35.2872 34.6667 35.4811C34.2691 35.5878 33.9685 35.9175 33.8909 36.3248L33.7067 37.3429H30.9527L30.7685 36.3248C30.7006 35.9175 30.3903 35.5878 29.9927 35.4811C29.2849 35.2872 28.6061 35.006 27.9758 34.6472C27.617 34.4435 27.1709 34.4629 26.8315 34.6957L25.9879 35.2872L24.0388 33.3381L24.6303 32.4944C24.863 32.1551 24.8921 31.709 24.6788 31.3502C24.3103 30.7199 24.0291 30.0411 23.8449 29.3332C23.7382 28.9357 23.3988 28.6254 22.9915 28.5575L21.9733 28.3829V25.629H21.9927Z" fill="#F18232"></path>
  <path d="M19.3551 6.4675C19.88 6.4675 20.3055 6.04204 20.3055 5.5172C20.3055 4.99236 19.88 4.56689 19.3551 4.56689C18.8303 4.56689 18.4048 4.99236 18.4048 5.5172C18.4048 6.04204 18.8303 6.4675 19.3551 6.4675Z" fill="#1A1A1A"></path>
  <path d="M22.7491 6.4675C23.2739 6.4675 23.6994 6.04204 23.6994 5.5172C23.6994 4.99236 23.2739 4.56689 22.7491 4.56689C22.2243 4.56689 21.7988 4.99236 21.7988 5.5172C21.7988 6.04204 22.2243 6.4675 22.7491 6.4675Z" fill="#1A1A1A"></path>
  <path d="M26.143 6.4675C26.6679 6.4675 27.0933 6.04204 27.0933 5.5172C27.0933 4.99236 26.6679 4.56689 26.143 4.56689C25.6182 4.56689 25.1927 4.99236 25.1927 5.5172C25.1927 6.04204 25.6182 6.4675 26.143 6.4675Z" fill="#1A1A1A"></path>
</svg>
